<svg width="20" height="21" viewBox="0 0 20 21" fill="none" xmlns="http://www.w3.org/2000/svg">
<path d="M10.375 4.59375C11.5831 4.59375 12.5625 3.5654 12.5625 2.29688C12.5625 1.02835 11.5831 0 10.375 0C9.16688 0 8.1875 1.02835 8.1875 2.29688C8.1875 3.5654 9.16688 4.59375 10.375 4.59375Z" fill="#3880FF"/>
<path d="M12.25 5.25H8.5C7.83756 5.25206 7.20281 5.52928 6.7344 6.02112C6.26598 6.51295 6.00196 7.17944 6 7.875V12.285C6 12.73 6.3293 13.1086 6.75273 13.1246C6.85767 13.1286 6.9623 13.1104 7.06038 13.071C7.15845 13.0316 7.24796 12.9718 7.32355 12.8953C7.39914 12.8188 7.45925 12.727 7.50031 12.6256C7.54137 12.5241 7.56252 12.4149 7.5625 12.3047V8.2142C7.56151 8.12955 7.59103 8.04763 7.64514 7.98487C7.69926 7.92212 7.77397 7.88316 7.8543 7.87582C7.89704 7.87284 7.93992 7.87912 7.98025 7.89427C8.02059 7.90942 8.05753 7.93312 8.08878 7.96389C8.12002 7.99466 8.14491 8.03185 8.1619 8.07315C8.17888 8.11444 8.18759 8.15896 8.1875 8.20395V20.0566C8.1875 20.3068 8.28216 20.5468 8.45065 20.7237C8.61914 20.9006 8.84766 21 9.08594 21C9.32422 21 9.55274 20.9006 9.72123 20.7237C9.88972 20.5468 9.98438 20.3068 9.98438 20.0566V14.2054C9.98299 14.0994 10.0198 13.9969 10.0874 13.9182C10.1549 13.8396 10.2483 13.7907 10.3488 13.7812C10.4023 13.7775 10.4559 13.7853 10.5064 13.8042C10.5568 13.8231 10.603 13.8527 10.6421 13.8912C10.6812 13.9297 10.7124 13.9762 10.7336 14.0278C10.7548 14.0795 10.7657 14.1352 10.7656 14.1914V20.0566C10.7656 20.3068 10.8603 20.5468 11.0288 20.7237C11.1973 20.9006 11.4258 21 11.6641 21C11.9023 21 12.1309 20.9006 12.2994 20.7237C12.4678 20.5468 12.5625 20.3068 12.5625 20.0566V8.2142C12.5615 8.12955 12.591 8.04763 12.6451 7.98487C12.6993 7.92212 12.774 7.88316 12.8543 7.87582C12.897 7.87284 12.9399 7.87912 12.9803 7.89427C13.0206 7.90942 13.0575 7.93312 13.0888 7.96389C13.12 7.99466 13.1449 8.03185 13.1619 8.07315C13.1789 8.11444 13.1876 8.15896 13.1875 8.20395V12.2858C13.1875 12.7308 13.5168 13.1094 13.9402 13.1254C14.0452 13.1294 14.1499 13.1112 14.2481 13.0717C14.3462 13.0323 14.4357 12.9725 14.5113 12.8959C14.5869 12.8192 14.647 12.7274 14.688 12.6258C14.729 12.5242 14.7501 12.415 14.75 12.3047V7.875C14.748 7.17944 14.484 6.51295 14.0156 6.02112C13.5472 5.52928 12.9124 5.25206 12.25 5.25Z" fill="#3880FF"/>
</svg>
