<svg width="14" height="16" viewBox="0 0 14 16" fill="none" xmlns="http://www.w3.org/2000/svg">
<path d="M0.868966 3.39635H13.131C13.5342 3.39635 13.9 3.76312 13.9 4.16912V6.20559C13.9 6.63386 13.536 6.97836 13.131 6.97836H0.868966C0.441847 6.97836 0.1 6.63564 0.1 6.20559V4.16912C0.1 3.76132 0.443616 3.39635 0.868966 3.39635ZM13.0379 5.38169V4.99379C13.0379 4.88846 12.9865 4.7916 12.9181 4.72302C12.8497 4.65449 12.7531 4.60287 12.6483 4.60287H11.1034C10.8732 4.60287 10.7138 4.79951 10.7138 4.99379V5.38169C10.7138 5.60641 10.8786 5.77261 11.1034 5.77261H12.6483C12.8437 5.77261 13.0379 5.61169 13.0379 5.38169ZM0.868966 7.85718H13.131C13.536 7.85718 13.9 8.20167 13.9 8.62995V10.6664C13.9 11.0947 13.536 11.4392 13.131 11.4392H0.868966C0.441847 11.4392 0.1 11.0965 0.1 10.6664V8.62995C0.1 8.19989 0.441847 7.85718 0.868966 7.85718ZM13.0379 9.84251V9.45462C13.0379 9.34928 12.9865 9.25242 12.9181 9.18384C12.8497 9.11532 12.7531 9.06369 12.6483 9.06369H11.1034C10.8732 9.06369 10.7138 9.26033 10.7138 9.45462V9.84251C10.7138 10.0672 10.8786 10.2334 11.1034 10.2334H12.6483C12.8437 10.2334 13.0379 10.0725 13.0379 9.84251ZM0.868966 12.318H13.131C13.536 12.318 13.9 12.6625 13.9 13.0908V15.1272C13.9 15.5555 13.536 15.9 13.131 15.9H0.868966C0.441847 15.9 0.1 15.5573 0.1 15.1272V13.0908C0.1 12.6607 0.441847 12.318 0.868966 12.318ZM13.0379 14.3033V13.9154C13.0379 13.6853 12.8428 13.5245 12.6483 13.5245H11.1034C10.8786 13.5245 10.7138 13.6907 10.7138 13.9154V14.3033C10.7138 14.5281 10.8786 14.6943 11.1034 14.6943H12.6483C12.8437 14.6943 13.0379 14.5333 13.0379 14.3033ZM13.131 2.54236H0.868966C0.813176 2.54236 0.757084 2.54566 0.701858 2.55243L2.01144 0.762323C2.14455 0.58424 2.36002 0.417616 2.60366 0.295352C2.8475 0.172995 3.10972 0.1 3.33142 0.1H10.6694C10.8784 0.1 11.1342 0.172592 11.3753 0.295122C11.6162 0.417521 11.8317 0.584335 11.9648 0.762626C11.9649 0.762652 11.9649 0.762677 11.9649 0.762703L13.2978 2.55464C13.2396 2.54647 13.1835 2.54236 13.131 2.54236Z" fill="black" stroke="white" stroke-width="0.2"/>
</svg>
