<svg width="21" height="21" viewBox="0 0 21 21" fill="none" xmlns="http://www.w3.org/2000/svg">
<g clip-path="url(#clip0_502_7248)">
<path d="M5.78999 1.56557H6.23186V6.45794C6.23186 6.75003 6.46864 6.98681 6.76074 6.98681H14.8679C15.16 6.98681 15.3968 6.75003 15.3968 6.45794V1.56557H15.8386C16.1307 1.56557 16.3675 1.32879 16.3675 1.03669C16.3675 0.74459 16.1307 0.507812 15.8386 0.507812H5.78999C5.49789 0.507812 5.26111 0.74459 5.26111 1.03669C5.26111 1.32879 5.49789 1.56557 5.78999 1.56557ZM7.28961 5.92906V1.56557H14.339V5.92906H7.28961Z" fill="#F9C550"/>
<path d="M18.787 10.3718V9.92836C18.787 8.59517 17.7024 7.5105 16.3692 7.5105H16.055C14.7218 7.5105 13.6372 8.59512 13.6372 9.92836V11.7461C13.5729 11.5736 13.4893 11.4106 13.3893 11.2593V9.92836C13.3893 8.59517 12.3046 7.5105 10.9714 7.5105H10.6572C9.32404 7.5105 8.23942 8.59512 8.23942 9.92836V11.2593C8.13941 11.4106 8.05579 11.5736 7.99148 11.7461V9.92836C7.99148 8.59517 6.90686 7.5105 5.57367 7.5105H5.25946C3.92627 7.5105 2.84165 8.59512 2.84165 9.92836V10.3718C1.98672 10.7449 1.38745 11.598 1.38745 12.5888V17.06C1.38745 17.3521 1.62423 17.5889 1.91633 17.5889H3.83308V19.45H3.37037C3.07827 19.45 2.84149 19.6868 2.84149 19.9789C2.84149 20.271 3.07827 20.5078 3.37037 20.5078H5.35355C5.64565 20.5078 5.88243 20.271 5.88243 19.9789C5.88243 19.6868 5.64565 19.45 5.35355 19.45H4.89084V17.5889H6.80775C7.09985 17.5889 7.33663 17.3521 7.33663 17.06V13.8891H7.4625C7.61021 13.8891 7.74365 13.8283 7.83959 13.7307V17.06C7.83959 17.3521 8.07637 17.5889 8.36847 17.5889H10.2854V19.45H9.82266C9.53057 19.45 9.29379 19.6868 9.29379 19.9789C9.29379 20.271 9.53057 20.5078 9.82266 20.5078H11.8058C12.0979 20.5078 12.3347 20.271 12.3347 19.9789C12.3347 19.6868 12.0979 19.45 11.8058 19.45H11.3431V17.5889H13.26C13.5521 17.5889 13.7889 17.3521 13.7889 17.06V13.7307C13.8849 13.8283 14.0183 13.8891 14.166 13.8891H14.2919V17.06C14.2919 17.3521 14.5287 17.5889 14.8208 17.5889H16.7377V19.45H16.275C15.9829 19.45 15.7461 19.6868 15.7461 19.9789C15.7461 20.271 15.9829 20.5078 16.275 20.5078H18.2581C18.5502 20.5078 18.787 20.271 18.787 19.9789C18.787 19.6868 18.5502 19.45 18.2581 19.45H17.7954V17.5889H19.7123C20.0044 17.5889 20.2412 17.3521 20.2412 17.06V12.5888C20.2412 11.598 19.6419 10.7449 18.787 10.3718ZM2.44505 16.5311V12.5888C2.44505 11.8388 3.05516 11.2287 3.80511 11.2287H4.91876C5.66871 11.2287 6.27882 11.8388 6.27882 12.5888V16.5311H2.44505ZM4.91876 10.1709H3.89925V9.92836C3.89925 9.17841 4.50936 8.56825 5.2593 8.56825H5.57351C6.32346 8.56825 6.93357 9.17841 6.93357 9.92836V11.2542C6.50016 10.6019 5.75899 10.1709 4.91876 10.1709ZM10.6571 8.56825H10.9713C11.7213 8.56825 12.3314 9.17841 12.3314 9.92836V10.3703C12.0368 10.2423 11.7122 10.1709 11.371 10.1709H10.2573C9.91622 10.1709 9.59155 10.2423 9.29696 10.3703V9.92836C9.29707 9.17841 9.90718 8.56825 10.6571 8.56825ZM8.89734 12.5888C8.89734 11.8388 9.50745 11.2287 10.2574 11.2287H11.3711C12.121 11.2287 12.7311 11.8388 12.7311 12.5888V16.5311H8.89734V12.5888ZM19.1835 16.5311H15.3497V12.5888C15.3497 11.8388 15.9598 11.2287 16.7097 11.2287H17.8234C18.5734 11.2287 19.1835 11.8388 19.1835 12.5888V16.5311ZM16.0549 8.56825H16.3692C17.1191 8.56825 17.7292 9.17841 17.7292 9.92836V10.1709H16.7097C15.8695 10.1709 15.1284 10.6019 14.6948 11.2542V9.92836C14.6949 9.17841 15.305 8.56825 16.0549 8.56825Z" fill="#F9C550"/>
</g>
<defs>
<clipPath id="clip0_502_7248">
<rect width="20" height="20" fill="white" transform="translate(0.814209 0.507812)"/>
</clipPath>
</defs>
</svg>
