<svg width="25" height="25" viewBox="0 0 25 25" fill="none" xmlns="http://www.w3.org/2000/svg">
<path d="M6.1 10.3999C5.51667 10.3999 5.02083 10.6041 4.6125 11.0124C4.20417 11.4207 4 11.9166 4 12.4999C4 13.0832 4.20417 13.5791 4.6125 13.9874C5.02083 14.3957 5.51667 14.5999 6.1 14.5999C6.68333 14.5999 7.17917 14.3957 7.5875 13.9874C7.99583 13.5791 8.2 13.0832 8.2 12.4999C8.2 11.9166 7.99583 11.4207 7.5875 11.0124C7.17917 10.6041 6.68333 10.3999 6.1 10.3999ZM12.5 10.3999C11.9167 10.3999 11.4208 10.6041 11.0125 11.0124C10.6042 11.4207 10.4 11.9166 10.4 12.4999C10.4 13.0832 10.6042 13.5791 11.0125 13.9874C11.4208 14.3957 11.9125 14.5999 12.4875 14.5999C13.0625 14.5999 13.5583 14.3957 13.975 13.9874C14.3917 13.5791 14.6 13.0832 14.6 12.4999C14.6 11.9166 14.3917 11.4207 13.975 11.0124C13.5583 10.6041 13.0583 10.3999 12.475 10.3999H12.5ZM18.9 10.3999C18.3167 10.3999 17.8208 10.6041 17.4125 11.0124C17.0042 11.4207 16.8 11.9166 16.8 12.4999C16.8 13.0832 17.0042 13.5791 17.4125 13.9874C17.8208 14.3957 18.3167 14.5999 18.9 14.5999C19.4833 14.5999 19.9792 14.3957 20.3875 13.9874C20.7958 13.5791 21 13.0832 21 12.4999C21 11.9166 20.7958 11.4207 20.3875 11.0124C19.9792 10.6041 19.4833 10.3999 18.9 10.3999Z" fill="#838C95"/>
</svg>
