<svg width="38" height="37" viewBox="0 0 38 37" fill="none" xmlns="http://www.w3.org/2000/svg">
<g filter="url(#filter0_d_75_29524)">
<path d="M29.7695 13.5117H20.5586L23.0547 6.32812C23.2656 5.8125 23.3828 5.25 23.3828 4.66406C23.3828 2.25 21.4258 0.292969 19.0117 0.292969C16.5977 0.292969 14.6406 2.26172 14.6406 4.66406C14.6406 5.25 14.7578 5.8125 14.9688 6.32812L17.4648 13.5117H8.23047L4.30469 28.9453H33.707L29.7695 13.5117ZM19.0117 2.57812C20.1602 2.57812 21.1094 3.51562 21.1094 4.67578C21.1094 5.83594 20.1719 6.77344 19.0117 6.77344C17.8516 6.77344 16.9141 5.83594 16.9141 4.67578C16.9023 3.51562 17.8516 2.57812 19.0117 2.57812ZM8.78125 14.8828C8.82812 14.9062 8.88672 14.918 8.94531 14.918C9.0625 14.918 9.16797 14.8711 9.26172 14.7891C9.34375 14.7188 9.39062 14.6016 9.39062 14.4727C9.39062 14.4375 9.39062 14.4141 9.3789 14.3906H17.7695L19.0234 18L20.2773 14.3906H29.1133L32.4766 27.668C32.4062 27.6797 32.3242 27.7148 32.2773 27.7852C32.1953 27.8672 32.1484 27.9727 32.1484 28.1016H5.42969L8.78125 14.8828ZM20.7812 25.1836C20.5586 25.125 20.3008 25.2422 20.2422 25.4883C20.1836 25.7227 20.3008 25.9688 20.5469 26.0273C20.582 26.0391 20.6289 26.0391 20.6758 26.0391C20.8633 26.0391 21.0391 25.9102 21.0977 25.7227C21.1445 25.4883 21.0039 25.2539 20.7812 25.1836ZM23.125 25.6406C22.8906 25.6055 22.6562 25.7578 22.6094 25.9922C22.5742 26.2266 22.7266 26.4609 22.9609 26.5078C22.9844 26.5078 23.0078 26.5195 23.0312 26.5195C23.2422 26.5195 23.418 26.3672 23.4531 26.1563C23.5234 25.9102 23.3594 25.6875 23.125 25.6406ZM18.9414 18.5859C18.4258 18.6094 18.0273 19.0547 18.0391 19.5586C18.0625 20.0625 18.4727 20.4609 18.9766 20.4609C18.9883 20.4609 19 20.4609 19.0117 20.4609C19.5391 20.4375 19.9375 19.9922 19.9141 19.4883C19.8906 18.9727 19.4453 18.5742 18.9414 18.5859ZM30.2969 27.1172C30.0625 27.0703 29.8164 27.2227 29.7695 27.457C29.7227 27.6914 29.875 27.9375 30.1094 27.9844C30.1328 27.9844 30.168 27.9961 30.2148 27.9961C30.4141 27.9961 30.6016 27.8555 30.6367 27.6445C30.6836 27.3984 30.543 27.1641 30.2969 27.1172ZM18.5312 22.3711C18.5664 22.3711 18.5898 22.3828 18.6367 22.3828C18.8359 22.3828 19.0234 22.2422 19.0586 22.0312C19.1055 21.7969 18.9531 21.5508 18.7188 21.5039C18.4844 21.457 18.2383 21.6094 18.1914 21.8438C18.1445 22.0781 18.2969 22.3008 18.5312 22.3711ZM27.918 26.6016C27.6836 26.5547 27.4375 26.707 27.3906 26.9414C27.3438 27.1758 27.4961 27.4219 27.7305 27.457C27.7539 27.457 27.7891 27.4688 27.8125 27.4688C28.0117 27.4688 28.1992 27.3281 28.2344 27.1172C28.3047 26.8945 28.1406 26.6484 27.918 26.6016ZM25.5273 26.1094C25.293 26.0625 25.0469 26.2148 25.0117 26.4492C24.9648 26.6836 25.1172 26.918 25.3516 26.9648C25.375 26.9766 25.4102 26.9766 25.4336 26.9766C25.6328 26.9766 25.8203 26.8359 25.8555 26.625C25.9141 26.3906 25.7617 26.1562 25.5273 26.1094ZM13.4922 15.5508C13.2578 15.5273 13.0234 15.6914 13 15.9258C12.9766 16.1602 13.1406 16.3945 13.375 16.418C13.3867 16.418 13.4102 16.418 13.4219 16.418C13.6328 16.418 13.8203 16.2539 13.8555 16.0312C13.9023 15.7852 13.7266 15.5742 13.4922 15.5508ZM11.125 15.1875C10.8906 15.1406 10.6445 15.293 10.5977 15.5156C10.5508 15.75 10.7031 15.9961 10.9258 16.043C10.9609 16.043 10.9844 16.0547 11.0312 16.0547C11.2305 16.0547 11.4062 15.9141 11.4531 15.7148C11.5117 15.4805 11.3594 15.2344 11.125 15.1875ZM18.3789 17.6484C18.543 17.4609 18.5195 17.1797 18.3437 17.0391C18.1562 16.875 17.875 16.8984 17.7344 17.0742C17.5703 17.2617 17.5937 17.543 17.7695 17.6836C17.8516 17.7539 17.957 17.8008 18.0625 17.8008C18.1562 17.7891 18.2852 17.7422 18.3789 17.6484ZM15.9414 15.9375C15.707 15.8906 15.4609 16.0195 15.4141 16.2656C15.3672 16.5117 15.4961 16.7461 15.7422 16.793C15.7773 16.8047 15.8008 16.8047 15.8477 16.8047C16.0469 16.8047 16.2227 16.6641 16.2695 16.4648C16.3164 16.2305 16.1758 16.0078 15.9414 15.9375ZM18.4492 23.9297C18.2383 24.0469 18.1562 24.3047 18.2734 24.5156C18.3438 24.668 18.4961 24.7383 18.6602 24.7383C18.7305 24.7383 18.8008 24.7266 18.8711 24.6914C19.082 24.5742 19.1641 24.3164 19.0469 24.0938C18.9414 23.8945 18.6602 23.8125 18.4492 23.9297Z" fill="black"/>
</g>
<defs>
<filter id="filter0_d_75_29524" x="0" y="0" width="38" height="38" filterUnits="userSpaceOnUse" color-interpolation-filters="sRGB">
<feFlood flood-opacity="0" result="BackgroundImageFix"/>
<feColorMatrix in="SourceAlpha" type="matrix" values="0 0 0 0 0 0 0 0 0 0 0 0 0 0 0 0 0 0 127 0" result="hardAlpha"/>
<feOffset dy="4"/>
<feGaussianBlur stdDeviation="2"/>
<feComposite in2="hardAlpha" operator="out"/>
<feColorMatrix type="matrix" values="0 0 0 0 0 0 0 0 0 0 0 0 0 0 0 0 0 0 0.25 0"/>
<feBlend mode="normal" in2="BackgroundImageFix" result="effect1_dropShadow_75_29524"/>
<feBlend mode="normal" in="SourceGraphic" in2="effect1_dropShadow_75_29524" result="shape"/>
</filter>
</defs>
</svg>
