<svg width="35" height="35" viewBox="0 0 35 35" fill="none" xmlns="http://www.w3.org/2000/svg">
<circle cx="17.5" cy="17.5" r="17.5" fill="#838C95"/>
<circle cx="17.5" cy="17.5" r="17" stroke="black" stroke-opacity="0.15"/>
<path d="M11.1 15.4C10.5167 15.4 10.0208 15.6042 9.6125 16.0125C9.20417 16.4208 9 16.9167 9 17.5C9 18.0833 9.20417 18.5792 9.6125 18.9875C10.0208 19.3958 10.5167 19.6 11.1 19.6C11.6833 19.6 12.1792 19.3958 12.5875 18.9875C12.9958 18.5792 13.2 18.0833 13.2 17.5C13.2 16.9167 12.9958 16.4208 12.5875 16.0125C12.1792 15.6042 11.6833 15.4 11.1 15.4ZM17.5 15.4C16.9167 15.4 16.4208 15.6042 16.0125 16.0125C15.6042 16.4208 15.4 16.9167 15.4 17.5C15.4 18.0833 15.6042 18.5792 16.0125 18.9875C16.4208 19.3958 16.9125 19.6 17.4875 19.6C18.0625 19.6 18.5583 19.3958 18.975 18.9875C19.3917 18.5792 19.6 18.0833 19.6 17.5C19.6 16.9167 19.3917 16.4208 18.975 16.0125C18.5583 15.6042 18.0583 15.4 17.475 15.4H17.5ZM23.9 15.4C23.3167 15.4 22.8208 15.6042 22.4125 16.0125C22.0042 16.4208 21.8 16.9167 21.8 17.5C21.8 18.0833 22.0042 18.5792 22.4125 18.9875C22.8208 19.3958 23.3167 19.6 23.9 19.6C24.4833 19.6 24.9792 19.3958 25.3875 18.9875C25.7958 18.5792 26 18.0833 26 17.5C26 16.9167 25.7958 16.4208 25.3875 16.0125C24.9792 15.6042 24.4833 15.4 23.9 15.4Z" fill="#F6F7F8"/>
</svg>
